<svg version="1" xmlns="http://www.w3.org/2000/svg" width="3053.333" height="3053.333" viewBox="0 0 2290.000000 2290.000000"><path d="M1111.5 11.4c-33.9 11.4-33.2 11.1-48.1 21.6-1.2.8-5.9 4-10.5 7.1-7.5 5.1-27.8 18.9-38.2 26.2-4.1 2.8-4.4 3.2-34.1 50.4-9.8 15.5-18.6 28.5-19.5 28.7-2.2.7-31 7.1-36.1 8.1-2.3.5-24.7 6.1-28 7-.8.3-5.1 1.6-9.5 2.9-10.5 3.2-32.7 9.7-34 10-7 1.6-25.9 8-45 15.1-39 14.7-46.8 17.5-48.1 17.5-.8 0-1.4.4-1.4 1 0 .5-.6 1-1.4 1-.7 0-5.3 1.9-10.2 4.1-7.8 3.6-11.6 5.3-13.4 5.8-.3.1-3.6 1.7-7.4 3.5-7.5 3.7-7 3.7-17.1-.9-7.5-3.4-12.5-5.4-12.5-4.9 0 .2-1.1-.3-2.5-1.2-1.4-.9-2.5-1.3-2.5-.9s-.6.3-1.2-.2c-.7-.6-6.9-3.2-13.8-5.8-6.9-2.6-13.8-5.3-15.5-6-1.6-.7-11.8-4.8-22.5-9.1l-19.5-7.7H603c-9.1 0-28 .2-42 .4l-25.5.3-33.4 11.1-33.5 11.1-16.5 22.6c-9.1 12.5-17.3 23.7-18.1 24.9-.8 1.2-2.5 3.2-3.7 4.4-1.2 1.2-2.6 3.8-3.2 5.6-.5 1.9-3.5 10.6-6.6 19.4-3.1 8.8-6.3 18-7.2 20.5-1.4 4.3-5.9 16.9-7 20-.3.8-.7 1.9-.9 2.5-.1.5-1.2 3.7-2.4 7-2.1 5.8-2.4 10.4-1.6 22.5.2 2.5.7 10.3 1 17.5.4 7.1.9 14.8 1.2 17 .2 2.2.6 8.9.9 15 .6 11.8.9 15.9 2.1 30 1 13 1.4 11.9-7.2 20.9-.5.6-3.4 3.8-6.3 7.1-3 3.3-8.5 9.5-12.4 13.8-3.8 4.2-14.1 16.8-22.9 28-8.7 11.1-16.9 21.5-18.3 23.2-9.7 12.1-16.4 21.1-25.9 35-6 8.8-13.3 19.5-16.3 23.8-2.9 4.3-5.3 8.2-5.3 8.7 0 .4-.4 1-.9 1.2-.6.1-4.2 5.2-8 11.3-3.9 6-7.4 11.5-7.8 12.1-.5.5-1.3 1.9-1.9 3-.6 1-6.3 10.7-12.7 21.4l-11.5 19.6-7.9 1.9c-4.3 1-8.2 2-8.8 2.1-.5.2-2 .5-3.3.8-1.2.3-3.1.8-4.2 1.1-1.1.3-2.9.7-4 1-1.1.3-2.9.7-4.1 1-1.1.2-2.9.7-3.9 1-1 .3-2.7.8-3.7 1-10 2.1-50.1 12.9-51 13.7-.7.6-1.3.7-1.3.4 0-.4-2.1 1-4.7 3.1s-5.4 4.4-6.3 5c-.8.7-13.5 10.5-28.1 21.7l-26.6 20.5-8.9 12.1c-4.9 6.7-9.3 12.9-9.9 13.8-.5.9-1.3 1.9-1.6 2.2-.3.3-3 3.9-6 8s-7.5 10.2-9.9 13.4l-4.3 6v35.2c.1 28.3.4 36.2 1.6 40.1.8 2.6 3.1 10 5 16.3 7.2 23.1 10 32.5 10.3 34 .1.8 1.6 6 3.3 11.4 3.1 10.1 4.4 12.7 8.6 17.5 2.8 3.2 12.8 15.2 17.5 21.1 1.9 2.4 5 6.2 6.9 8.4 1.8 2.3 5 6.1 7 8.5 2 2.5 5.2 6.3 7.1 8.6 1.9 2.3 4.9 5.9 6.7 8.1 1.7 2.1 4.4 5.5 6 7.4 1.5 1.9 3.8 4.5 5.1 5.8 1.8 1.9 2.1 3.1 1.8 6.5-.3 2.3-.8 7.3-1.2 11.2-.3 3.8-.8 8.3-.9 10-2 19.8-2.2 23.8-3.1 48.5-1.6 42.3-.5 115.5 2.1 140 1 9.5 1.4 14.3 2 20 .3 3 .7 7.5 1 10 .5 4.2.2 4.8-4.2 10.1-2.7 3.1-10.6 12.7-17.8 21.4-7.1 8.7-13.5 16.3-14 16.9-.6.6-4.5 5.4-8.7 10.6-4.3 5.2-9.1 11.1-10.8 13-6.5 7.5-8.1 11-14.5 32-3.6 11.8-6.8 22.6-7.1 23.9-.3 1.3-1.3 4.9-2.4 8-1 3.1-3.1 9.6-4.6 14.6l-2.7 9 .1 35.1.1 35.1 5.8 8c3.2 4.4 9.2 12.7 13.3 18.3 4.1 5.6 10 13.7 13 17.9 7.5 10.3 8.8 11.7 14 15.6 2.5 1.8 7 5.2 10 7.6 3 2.3 8.4 6.5 12 9.3 3.6 2.7 6.7 5.2 7 5.5.3.4 4.1 3.3 8.5 6.6 4.4 3.2 8.6 6.5 9.3 7.2.7.7 1.6 1.3 2 1.3.4 0 2.7 1.8 5.2 4 2.4 2.2 5 4 5.6 4 .7 0 1.4.4 1.6.9.1.4 6.8 2.5 14.8 4.5s15.3 3.9 16.2 4.1c3.6 1 6.4 1.6 8.8 2.1 1.4.3 3.4.8 4.5 1.1 1.1.4 2.6.8 3.4.9.8.2 2.6.6 4 1s2.8.8 3.1.8c.3.1 8.5 2.1 18.3 4.6l17.9 4.5 5.7 9.5c3.1 5.2 6 10.2 6.4 11 .8 1.6 18 30.5 19.7 33 .6.8 3.6 5.2 6.8 9.7 3.1 4.5 9.1 13.2 13.2 19.3 4.1 6.1 8.1 11.8 8.7 12.5.7.7 1.3 1.7 1.3 2 0 .6 5.3 8.3 14.2 20.5 3.3 4.4 28.3 36.4 30.3 38.6.5.7 1.9 2.4 3 4 1.1 1.5 3.4 4.4 5 6.4 1.7 2 4.1 5.2 5.5 7 1.4 1.9 3.4 4.4 4.5 5.6 1.1 1.2 4.5 5 7.5 8.4 3 3.4 6.6 7.4 8 8.9 1.4 1.5 5.4 6.1 9 10.1 3.6 4.1 7.2 8 8.1 8.8.9.8 1.5 2.5 1.3 4-.6 4.8-1.3 14.5-1.9 26.2-.4 6.3-.8 13.1-1 15-.2 1.9-.6 8.9-1 15.5s-.9 13.8-1.1 16c-.7 9.1-1.7 27.2-1.6 30 .1 3.4 25.3 76.3 27.9 81 .9 1.6 3.3 5.1 5.2 7.6 2 2.5 4.3 5.6 5.1 6.8.8 1.2 2.3 3.2 3.2 4.4.9 1.2 4.6 6.2 8.2 11.2 3.6 4.9 7.4 10.1 8.3 11.4 1 1.3 2.4 3 3 3.7.7.7 1.3 1.6 1.3 2.1.1.4 1.5 2.4 3.3 4.4 3 3.4 5.3 4.4 34.2 13.9 17.1 5.7 31.5 10.5 32 10.9 1.1.6 18.9 1 61 1.3l26 .2 24.5-9.8c29.7-11.8 33.9-13.5 36.5-14.6 1.1-.4 9.2-3.6 17.9-7.1 8.8-3.4 17-6.8 18.4-7.5 2.1-1.1 3.2-.8 9 1.7 3.7 1.7 7.2 3.5 7.9 4.1.7.6 1.3.7 1.3.4 0-.4 1.2 0 2.8.8 3.5 2 14.3 6.8 16 7.2.7.1 2.4.9 3.7 1.8 1.3.9 3.2 1.6 4 1.6.9 0 2.6.5 3.8 1.2 1.2.7 2.7 1.3 3.2 1.4 1 .2 34.3 12.6 39.5 14.7 1.4.6 3 1.1 3.5 1.3.6.1 2.4.8 4 1.5 1.7.6 3.5 1.3 4 1.4.6.2 3.9 1.4 7.5 2.8 6 2.3 21.7 7.2 26.5 8.2 1.1.3 5.6 1.6 10 2.9 12.9 4 22.9 6.9 24.1 7.2.6.1 4.9 1.3 9.5 2.8 6.9 2 28.8 7.5 37.2 9.2 1 .2 2.6.5 3.5.8.9.3 2.8.7 4.2 1 4.6.8 17.5 3.6 19.1 4.1.9.3 3.1 2.9 4.9 5.8 1.8 2.8 4.3 6.8 5.5 8.7 1.3 1.9 5.3 8.2 8.9 14 3.6 5.8 7 11 7.6 11.7.5.7 1 1.4 1 1.6 0 .3 4.9 8.2 11 17.7l10.9 17.2 12.8 8.7c7 4.8 17.8 12.1 23.8 16.2 6.1 4.2 14.8 10.2 19.5 13.3 4.7 3.2 9.2 6.4 10 7.1.8.7 16.5 6.2 34.9 12.4l33.3 11.1 10.2-3.6c5.5-2 10.8-3.7 11.6-3.9.8-.2 10.9-3.5 22.4-7.4 22.3-7.5 22.4-7.6 52.6-28.6 2.5-1.7 11.7-8 20.5-14s16.7-11.8 17.5-12.9c1.5-2.1 23.8-37.3 38.8-61.3 8.2-13.1 8.3-13.2 13-14.2 2.6-.6 10.8-2.4 18.2-4.1 7.4-1.7 14.2-3.3 15-3.5.8-.2 4.7-1.1 8.5-2 3.9-.9 7.7-1.8 8.5-2 .8-.1 4.2-1.1 7.5-2.1s6.5-1.9 7-2c.6-.2 3.9-1.2 7.5-2.2 3.6-1.1 12.1-3.7 19-5.7s17-5 22.5-6.7c5.5-1.6 10.5-3 11-3.1.6-.2 2.4-.8 4-1.4 1.7-.7 11.1-4.2 21-7.8 9.9-3.6 18.7-6.9 19.5-7.2.8-.3 1.7-.7 2-.7.3-.1 3-1.1 6-2.3 3-1.2 8.9-3.4 13-4.9 6.8-2.4 10.6-3.9 19.5-7.9 1.7-.7 8.4-3.6 15-6.5s12.5-5.6 13-6.1c.6-.4 3.1.1 5.5 1.3 6.1 2.7 56.9 22.9 58 23 .3 0 1.4.5 2.5 1.1 1.1.6 2.2 1.2 2.5 1.3.3 0 1.4.4 2.5.8s4.5 1.7 7.5 2.9c3 1.1 6.1 2.5 6.8 3 .6.5 1.2.6 1.2.3 0-.4 1-.1 2.3.6 1.2.6 2.7 1.3 3.2 1.4.6.1 3.3 1.1 6 2.2 4.6 1.8 6.9 1.9 30.5 1.6 46.5-.7 58.5-1.2 61.5-2.3 3.1-1.2 41.3-14 43-14.5.6-.1 5-1.5 9.9-3.2l8.8-2.9 20.5-27.9c16.4-22.2 21-29.2 22.5-34 1.1-3.4 2.3-7 2.8-8.1 1.1-2.8 2.3-5.8 2.6-7 .2-1.2 12.1-35 16.6-47.5 3.1-8.7 3.3-11.1 2.3-26.5-1.2-19.6-1.6-26.6-2-31.5-.2-3-.7-10.5-1-16.5-.4-6.1-.8-12.9-1-15.3-.2-2.4-.7-9.1-1-15-.4-5.9-.8-11-.8-11.3-.2-.6 7.4-9.4 17.4-20.4 2.5-2.8 6.3-7 8.5-9.4 2.1-2.4 4.4-4.9 5-5.5 4.7-4.9 53.2-66.8 58.4-74.6 2.4-3.6 4.8-6.8 5.4-7.2.6-.4.7-.8.3-.8-.5 0 .2-1.3 1.5-2.9 2.9-3.6 31.8-46.4 34.4-51 1-1.8 7.5-12.8 14.4-24.4l12.5-21 20.5-5.3c11.3-2.9 21.6-5.5 23-5.8 6.6-1.3 8.4-1.7 9.2-2.2.4-.3 1.6-.7 2.5-.9 1-.2 9.5-2.2 18.8-4.6 16.7-4.1 19.1-5.2 27-11.7.6-.5 3.9-3 7.5-5.8 3.6-2.7 6.7-5.2 7-5.5.3-.3 7-5.5 15-11.5s15-11.4 15.5-12c.6-.5 3.6-2.9 6.7-5.3 3.4-2.5 8.2-7.8 12-12.9 6.9-9.6 18.3-25.1 19.5-26.7.5-.6 3.9-5.1 7.6-10.1l6.7-9.2.1-35.3.2-35.4-3.1-10c-1.7-5.5-5.3-17.7-8.1-27-2.9-9.4-5.6-18.4-6.1-20-.6-1.7-2.1-6.8-3.6-11.5-1.7-5.7-3.9-10.3-6.6-14-2.3-3-4.4-5.7-4.8-6-.3-.3-4.6-5.5-9.5-11.5-4.9-6.1-9.1-11.2-9.5-11.5-.3-.3-2.4-2.7-4.5-5.5-2.2-2.7-4.4-5.5-5-6.1-.5-.6-2.3-2.8-4-4.8-1.6-2.1-4-5-5.3-6.5-1.3-1.4-3.5-4.2-5-6-1.5-1.9-4.2-5.1-6-7-4-4.4-6-8-5.7-10.4.2-.9.6-5.2 1-9.5.3-4.2.8-8.8 1-10.2 3.3-22.2 4.9-101.1 3.1-153.5-.9-25.8-.9-26.1-3.1-49.5-.2-1.9-.7-6.9-1.1-11-.3-4.1-.8-8.5-.9-9.7-.1-1.2.5-3 1.4-4 .9-1 10.2-12.2 20.6-24.8 10.4-12.7 23.9-29.1 30-36.5 9.2-11.2 11.4-14.5 12.9-19.5 1-3.3 2.5-8.3 3.4-11 .9-2.8 1.7-5.5 1.8-6 .1-.6 3.9-13.2 8.4-28l8.2-27-.1-35.3-.2-35.3-9.2-12.7c-5-7-9.6-13.2-10.2-13.9-2.2-2.6-3.3-4.2-11.8-16-4.8-6.7-10.5-13.4-12.5-14.9-2-1.6-4.8-3.9-6.2-5.1-1.4-1.3-2.8-2.3-3.2-2.3-.3 0-1.3-.6-2-1.3-.7-.7-5.3-4.4-10.3-8.2-4.9-3.8-15.7-12.1-24-18.5-8.2-6.4-16-12.2-17.2-12.8-1.2-.7-5.7-2.1-10-3.1-4.3-1.1-24.4-6.2-44.7-11.3l-37-9.4-2.2-3.4c-4.1-6.5-20-33.5-24-40.9-1.1-1.9-2.2-4-2.7-4.5-3.2-4.5-14.7-21.8-14.7-22.2 0-.3-.6-1.1-1.2-1.9-1.4-1.4-10.6-14.5-12.3-17.4-1.3-2.3-8.9-13.5-9.5-14.1-.3-.3-2.1-3-4.1-6-3.2-4.8-9.6-13.3-15.9-21-1.2-1.4-3.1-3.8-4.3-5.4-1.2-1.6-3.5-4.5-5.2-6.6-1.6-2-4.1-5.2-5.5-7-1.4-1.9-3.2-4.1-4-5-.8-.8-2.6-3.1-4-5-2.5-3.5-4.6-6.2-6.5-8.4-.6-.6-2.8-3.3-5-6.1-2.2-2.7-4.4-5.5-5-6.1-.5-.6-4.4-4.8-8.5-9.4-4.1-4.6-8.9-9.8-10.5-11.5-8.2-8.6-13.2-15.2-12.9-16.9.3-2.2 1.4-15.5 1.9-25.1.6-9.7 1.3-20.4 2-31 .7-11.5 1.3-20.5 2-33 .4-5.5.8-11 1-12.3.2-1.2-.1-2.2-.6-2.2-.6 0-.7-.5-.4-1 .6-1-2.4-11.5-5-17.5-.7-1.7-2.9-7.7-4.8-13.5-3.5-10.5-9.2-26.9-14.2-40.9-1.7-4.7-4.7-10.1-8.5-15.2-3.3-4.4-6-8.3-6-8.8s-.7-1.1-1.5-1.5c-.8-.3-1.5-1-1.5-1.6 0-.6-.6-1.8-1.2-2.5-2.5-2.8-3.8-4.5-6.1-7.7-1.2-1.8-6-8.4-10.6-14.5-7.3-9.9-8.8-11.4-12.5-12.5-2.2-.6-4.3-1.2-4.6-1.3-.3-.1-1.8-.7-3.4-1.4-1.6-.6-3.8-1.3-5-1.6-1.1-.2-2.2-.4-2.3-.6-.2-.1-.6-.2-1-.4-.5-.1-1.5-.4-2.3-.8-1.4-.5-8.8-2.9-10-3.2-.3-.1-1.7-.7-3.3-1.3-1.5-.7-3.8-1.4-5-1.7-1.2-.2-4.9-1.4-8.2-2.5-3.3-1.2-6.4-2.3-7-2.4-.5-.2-1.9-.6-3-1-1.1-.5-2.7-1-3.5-1.4-1.8-.6-14.5-.9-56-1.3l-31.5-.3-10.5 4.2c-5.8 2.4-11.9 5-13.7 5.7-1.7.8-3.4 1.5-3.7 1.5-.6 0-44.4 17.1-50.1 19.5-1.6.8-5.4 2.3-8.3 3.4-2.9 1.2-7 3-9.1 4.1-2.1 1-4.2 1.5-4.7 1.1-.5-.4-2.5-1.4-4.4-2.1-1.9-.7-6-2.4-9-3.7-3-1.4-7.1-3.2-9-4-1.9-.8-5.5-2.5-8-3.6-6.3-2.9-28.5-11.4-31.5-12.2-.5-.1-2.3-.7-4-1.4-3.4-1.4-29.5-11.1-31-11.5-1-.3-1.6-.5-8.5-3.3-1.9-.7-7.3-2.5-12-3.9-38.3-11.4-69-20.5-71-20.9-.8-.2-6.2-1.5-12-2.9-11.1-2.6-41.7-9.6-42.3-9.6-.3 0-2.4-3.2-4.8-7.1-2.4-3.9-5-7.7-5.6-8.4-.7-.8-1.3-1.6-1.3-2 0-.3-2-3.7-4.5-7.5s-4.5-7.2-4.5-7.5c0-.4-.6-1.2-1.2-2-.7-.7-4-5.7-7.3-11s-8.1-12.9-10.7-17c-2.7-4.1-4.8-7.7-4.8-8 0-.4-.7-1.3-1.5-2.1s-1.8-2.1-2.2-2.8c-.5-.7-8.4-6.5-17.8-12.8-9.3-6.4-24.6-16.8-34-23.2l-17-11.6-32-10.6c-17.6-5.8-32.4-10.7-33-10.8-.5-.2-15.9 4.7-34 10.8z"/></svg>